<svg width="36" height="36" viewBox="0 0 36 36" fill="none" xmlns="http://www.w3.org/2000/svg">
<path d="M18 23.3333C19.4145 23.3333 20.771 22.7714 21.7712 21.7712C22.7714 20.771 23.3333 19.4145 23.3333 18C23.3333 16.5855 22.7714 15.2289 21.7712 14.2287C20.771 13.2285 19.4145 12.6666 18 12.6666C16.5855 12.6666 15.229 13.2285 14.2288 14.2287C13.2286 15.2289 12.6667 16.5855 12.6667 18C12.6667 19.4145 13.2286 20.771 14.2288 21.7712C15.229 22.7714 16.5855 23.3333 18 23.3333ZM18 11.3333C18.8755 11.3333 19.7424 11.5058 20.5512 11.8408C21.3601 12.1758 22.095 12.6669 22.714 13.2859C23.3331 13.905 23.8242 14.6399 24.1592 15.4488C24.4942 16.2576 24.6667 17.1245 24.6667 18C24.6667 19.7681 23.9643 21.4638 22.714 22.714C21.4638 23.9643 19.7681 24.6666 18 24.6666C14.3133 24.6666 11.3333 21.6666 11.3333 18C11.3333 16.2319 12.0357 14.5362 13.286 13.2859C14.5362 12.0357 16.2319 11.3333 18 11.3333ZM18.3333 14.6666V18.1666L21.3333 19.9466L20.8333 20.7666L17.3333 18.6666V14.6666H18.3333Z" fill="#DC5126"/>
<circle cx="18" cy="18" r="17.5" stroke="#DC5126"/>
</svg>
