<svg width="26" height="26" viewBox="0 0 26 26" fill="none" xmlns="http://www.w3.org/2000/svg">
<path d="M13 3.25C15.5068 3.25 17.8273 3.692 19.5628 4.45142C20.4284 4.83058 21.1976 5.30942 21.7642 5.89658C22.2896 6.43825 22.6796 7.11858 22.7413 7.90725L22.75 8.125V18.9583C22.75 19.8402 22.3373 20.5942 21.7642 21.1868C21.1976 21.7739 20.4284 22.2528 19.5628 22.6319C17.8273 23.3903 15.5068 23.8333 13 23.8333C10.4932 23.8333 8.17267 23.3913 6.43717 22.6319C5.57158 22.2528 4.80242 21.7739 4.23583 21.1868C3.71042 20.6451 3.32042 19.9648 3.25867 19.1761L3.25 18.9583V8.125C3.25 7.24317 3.66275 6.48917 4.23583 5.89658C4.80242 5.30942 5.57158 4.83058 6.43717 4.45142C8.17267 3.69308 10.4932 3.25 13 3.25ZM20.5833 16.6909C20.2551 16.888 19.9142 17.0632 19.5628 17.2153C17.8273 17.9736 15.5068 18.4167 13 18.4167C10.4932 18.4167 8.17267 17.9747 6.43717 17.2153C6.08579 17.0632 5.74488 16.888 5.41667 16.6909V18.9583C5.41667 19.123 5.48817 19.3657 5.79367 19.6809C6.1035 20.0016 6.604 20.3396 7.306 20.6473C8.70783 21.2604 10.7196 21.6667 13 21.6667C15.2804 21.6667 17.2922 21.2604 18.694 20.6473C19.396 20.3396 19.8965 20.0016 20.2063 19.6809C20.5118 19.3668 20.5833 19.123 20.5833 18.9583V16.6909ZM20.5833 11.2743C20.2551 11.4714 19.9142 11.6465 19.5628 11.7986C17.8273 12.5569 15.5068 13 13 13C10.4932 13 8.17267 12.558 6.43717 11.7986C6.08579 11.6465 5.74488 11.4714 5.41667 11.2743V13.5417C5.41667 13.7063 5.48817 13.949 5.79367 14.2642C6.1035 14.5849 6.604 14.9229 7.306 15.2306C8.70783 15.8438 10.7196 16.25 13 16.25C15.2804 16.25 17.2922 15.8438 18.694 15.2306C19.396 14.9229 19.8965 14.5849 20.2063 14.2642C20.5118 13.9501 20.5833 13.7063 20.5833 13.5417V11.2743ZM13 5.41667C10.7196 5.41667 8.70783 5.82292 7.306 6.43608C6.604 6.74375 6.1035 7.08175 5.79367 7.40242C5.48817 7.71658 5.41667 7.96033 5.41667 8.125C5.41667 8.28967 5.48817 8.53233 5.79367 8.84758C6.1035 9.16825 6.604 9.50625 7.306 9.81392C8.70783 10.4271 10.7196 10.8333 13 10.8333C15.2804 10.8333 17.2922 10.4271 18.694 9.81392C19.396 9.50625 19.8965 9.16825 20.2063 8.84758C20.5118 8.53342 20.5833 8.28967 20.5833 8.125C20.5833 7.96033 20.5118 7.71767 20.2063 7.40242C19.8965 7.08175 19.396 6.74375 18.694 6.43608C17.2922 5.82292 15.2804 5.41667 13 5.41667Z" fill="#DC5126"/>
</svg>
