<svg width="26" height="26" viewBox="0 0 26 26" fill="none" xmlns="http://www.w3.org/2000/svg">
<path d="M13.6581 3.49373C13.4744 3.33746 13.2412 3.25164 13 3.25164C12.7588 3.25164 12.5256 3.33746 12.3419 3.49373L4.42 10.2277C4.30784 10.3232 4.21777 10.4418 4.15603 10.5755C4.0943 10.7092 4.06239 10.8548 4.0625 11.002V21.5312C4.0625 21.639 4.1053 21.7423 4.18149 21.8185C4.25767 21.8947 4.36101 21.9375 4.46875 21.9375H8.53125C8.63899 21.9375 8.74233 21.8947 8.81851 21.8185C8.8947 21.7423 8.9375 21.639 8.9375 21.5312V15.8437C8.9375 15.305 9.15151 14.7884 9.53244 14.4074C9.91337 14.0265 10.43 13.8125 10.9688 13.8125H15.0345C15.3012 13.8125 15.5654 13.865 15.8118 13.9671C16.0583 14.0692 16.2822 14.2188 16.4708 14.4074C16.6594 14.596 16.8091 14.82 16.9111 15.0664C17.0132 15.3128 17.0658 15.577 17.0658 15.8437V21.5312C17.0658 21.639 17.1086 21.7423 17.1847 21.8185C17.2609 21.8947 17.3643 21.9375 17.472 21.9375H21.5312C21.639 21.9375 21.7423 21.8947 21.8185 21.8185C21.8947 21.7423 21.9375 21.639 21.9375 21.5312V11.0012C21.9375 10.8541 21.9055 10.7087 21.8438 10.5752C21.7821 10.4416 21.6921 10.3231 21.58 10.2277L13.6581 3.49373ZM11.2897 2.25629C11.7671 1.85042 12.3734 1.62756 13 1.62756C13.6266 1.62756 14.2329 1.85042 14.7103 2.25629L22.6322 8.98948C22.9238 9.23736 23.158 9.54565 23.3186 9.89302C23.4793 10.2404 23.5625 10.6185 23.5625 11.0012V21.5312C23.5625 22.07 23.3485 22.5866 22.9676 22.9675C22.5866 23.3485 22.07 23.5625 21.5312 23.5625H17.472C16.9333 23.5625 16.4166 23.3485 16.0357 22.9675C15.6548 22.5866 15.4408 22.07 15.4408 21.5312V15.8437C15.4408 15.736 15.3979 15.6327 15.3218 15.5565C15.2456 15.4803 15.1422 15.4375 15.0345 15.4375H10.9688C10.861 15.4375 10.7577 15.4803 10.6815 15.5565C10.6053 15.6327 10.5625 15.736 10.5625 15.8437V21.5312C10.5625 22.07 10.3485 22.5866 9.96756 22.9675C9.58663 23.3485 9.06997 23.5625 8.53125 23.5625H4.46875C3.93003 23.5625 3.41337 23.3485 3.03244 22.9675C2.65151 22.5866 2.4375 22.07 2.4375 21.5312V11.0012C2.43752 10.6185 2.52073 10.2404 2.68137 9.89302C2.842 9.54565 3.07622 9.23736 3.36781 8.98948L11.2897 2.25629Z" fill="#DC5126"/>
</svg>
