<svg width="45" height="25" viewBox="0 0 45 25" fill="none" xmlns="http://www.w3.org/2000/svg">
<path d="M16.4 14.7C17.2202 14.0836 17.8828 13.2818 18.3337 12.3602C18.7845 11.4386 19.0108 10.4234 18.9941 9.39757C18.9773 8.37173 18.7179 7.36444 18.2372 6.45806C17.7565 5.55169 17.068 4.772 16.2281 4.18275C15.3882 3.5935 14.4208 3.21144 13.4049 3.06781C12.389 2.92418 11.3536 3.02307 10.3833 3.35638C9.41293 3.6897 8.53529 4.24797 7.82212 4.98554C7.10895 5.72311 6.5805 6.61903 6.28 7.60001C5.18 10.73 5.5 11.5 3.1 13.68C2.62176 14.0721 2.27638 14.6024 2.11111 15.1983C1.94585 15.7942 1.96878 16.4266 2.17677 17.009C2.38477 17.5914 2.76766 18.0953 3.27304 18.4517C3.77842 18.8081 4.38159 18.9996 5 19C9 19 13.4 17.2 16.4 14.7Z" stroke="#DC5126" stroke-width="2" stroke-linecap="round" stroke-linejoin="round"/>
<path d="M18.5 7L20.69 11.5C21.1092 12.7889 21.1137 14.1767 20.7029 15.4683C20.2921 16.7598 19.4867 17.8901 18.4 18.7C15.4 21.2 11 23 7 23C6.44325 22.9992 5.8977 22.8436 5.42439 22.5504C4.95107 22.2572 4.56868 21.8381 4.32 21.34L2.4 17.5" stroke="#DC5126" stroke-width="2" stroke-linecap="round" stroke-linejoin="round"/>
<path d="M12.5 12C13.8807 12 15 10.8807 15 9.5C15 8.11929 13.8807 7 12.5 7C11.1193 7 10 8.11929 10 9.5C10 10.8807 11.1193 12 12.5 12Z" stroke="#DC5126" stroke-width="2" stroke-linecap="round" stroke-linejoin="round"/>
<path d="M34.62 8.38201L36.586 6.41501C36.3534 6.18248 36.1817 5.89618 36.0862 5.58147C35.9907 5.26676 35.9743 4.93335 36.0384 4.61076C36.1025 4.28818 36.2451 3.98638 36.4537 3.73211C36.6623 3.47783 36.9304 3.27892 37.2342 3.15299C37.5381 3.02706 37.8683 2.978 38.1956 3.01016C38.5229 3.04232 38.8372 3.15471 39.1107 3.33736C39.3842 3.52001 39.6085 3.7673 39.7636 4.05731C39.9187 4.34733 39.9999 4.67112 40 5.00001C40.329 4.99977 40.6529 5.08069 40.9432 5.23559C41.2334 5.3905 41.4809 5.6146 41.6638 5.88804C41.8467 6.16148 41.9593 6.47582 41.9917 6.8032C42.0241 7.13058 41.9752 7.46089 41.8494 7.76485C41.7236 8.06882 41.5247 8.33706 41.2705 8.54581C41.0162 8.75455 40.7144 8.89735 40.3917 8.96155C40.0691 9.02575 39.7356 9.00937 39.4208 8.91386C39.106 8.81835 38.8196 8.64666 38.587 8.41401L36.767 10.235M28.5 16L29.5 17M26.904 18.596C29.637 21.33 32.804 22.596 33.974 21.425C35.146 20.253 33.88 17.087 31.146 14.354C28.413 11.62 25.246 10.354 24.076 11.525C22.904 12.697 24.17 15.863 26.904 18.596Z" stroke="#DC5126" stroke-width="2" stroke-linecap="round" stroke-linejoin="round"/>
<path d="M33.975 21.425C37.88 17.519 38.83 12.137 36.096 9.40401C33.363 6.67001 27.981 7.62001 24.076 11.525" stroke="#DC5126" stroke-width="2" stroke-linecap="round" stroke-linejoin="round"/>
</svg>
