<svg width="28" height="28" viewBox="0 0 28 28" fill="none" xmlns="http://www.w3.org/2000/svg">
<circle cx="14" cy="14" r="13.5" stroke="#DC5126"/>
<path d="M12.7917 11.0833H14.2083C15.2099 11.0833 15.7107 11.0833 16.0217 11.395C16.3333 11.706 16.3333 12.2068 16.3333 13.2083V17.4583C16.3333 16.4568 16.3333 15.956 16.645 15.645C16.9553 15.3333 17.456 15.3333 18.4583 15.3333C19.4606 15.3333 19.9607 15.3333 20.2717 15.645C20.5833 15.956 20.5833 16.4568 20.5833 17.4583V19.5833H6.41667C6.41667 18.5818 6.41667 18.081 6.72834 17.77C7.03859 17.4583 7.53938 17.4583 8.54167 17.4583C9.54396 17.4583 10.044 17.4583 10.355 17.77C10.6667 18.0803 10.6667 18.581 10.6667 19.5833V13.2083C10.6667 12.2068 10.6667 11.706 10.9783 11.395C11.2886 11.0833 11.7894 11.0833 12.7917 11.0833ZM12.8951 6.14129C13.1643 5.6575 13.2988 5.41667 13.5 5.41667C13.7012 5.41667 13.8358 5.6575 14.1049 6.14129L14.1743 6.26596C14.2508 6.40338 14.2891 6.47138 14.3486 6.51671C14.4088 6.56204 14.4832 6.57904 14.6319 6.61233L14.7665 6.6435C15.2893 6.76179 15.5506 6.82058 15.613 7.02033C15.6753 7.22008 15.4968 7.42904 15.1405 7.84554L15.0484 7.95321C14.9471 8.0715 14.8961 8.13029 14.8735 8.20396C14.8508 8.27763 14.8586 8.35625 14.8735 8.51421L14.8876 8.658C14.9415 9.21404 14.9684 9.49242 14.8062 9.61567C14.6433 9.73963 14.3982 9.62629 13.9087 9.40104L13.7826 9.34296C13.6431 9.27921 13.5737 9.24663 13.5 9.24663C13.4263 9.24663 13.3569 9.27921 13.2174 9.34296L13.0913 9.40104C12.6018 9.62629 12.3568 9.73963 12.1938 9.61567C12.0309 9.49242 12.0585 9.21404 12.1124 8.658L12.1265 8.51421C12.1414 8.35625 12.1492 8.27763 12.1265 8.20396C12.1039 8.13029 12.0529 8.0715 11.9516 7.95321L11.8595 7.84554C11.5032 7.42904 11.3247 7.22079 11.387 7.02033C11.4494 6.82058 11.7108 6.76179 12.2335 6.6435L12.3681 6.61233C12.5168 6.57904 12.5912 6.56275 12.6514 6.51671C12.7109 6.47138 12.7492 6.40338 12.8257 6.26596L12.8951 6.14129Z" fill="#DC5126"/>
</svg>
