<svg width="36" height="36" viewBox="0 0 36 36" fill="none" xmlns="http://www.w3.org/2000/svg">
<path d="M14.6032 8.5H21.0563C21.175 8.50004 21.2924 8.52794 21.3981 8.58203C21.5038 8.63617 21.5952 8.71518 21.6647 8.81152C21.7341 8.90785 21.7796 9.01936 21.7975 9.13672C21.8155 9.25418 21.8048 9.37457 21.7672 9.4873L20.3161 13.8418L20.0963 14.5H24.7497C25.4105 14.5 25.7489 15.2963 25.2878 15.7725L14.2272 27.1885C13.9466 27.4781 13.5848 27.5448 13.2653 27.4609L13.8678 26.8398L24.5182 15.8477L25.3395 15H19.7497C19.7103 14.9999 19.6714 14.9906 19.6364 14.9727C19.6012 14.9546 19.5706 14.9276 19.5475 14.8955C19.5247 14.8636 19.5096 14.8269 19.5036 14.7881C19.4976 14.749 19.5008 14.7084 19.5133 14.6709L21.1833 9.6582L21.403 9H14.4264L14.3083 9.33203L11.0456 18.4893V18.4912C11.0059 18.6038 10.9931 18.7245 11.0094 18.8428C11.0258 18.9609 11.0707 19.0733 11.1393 19.1709C11.208 19.2686 11.2992 19.3489 11.4049 19.4043C11.5107 19.4597 11.6284 19.4894 11.7477 19.4902H11.7487L14.2506 19.5C14.288 19.5001 14.3254 19.5091 14.359 19.5254C14.3926 19.5417 14.4227 19.5646 14.446 19.5938C14.4693 19.623 14.4854 19.6579 14.4938 19.6943C14.4979 19.7123 14.4996 19.7307 14.4997 19.749L14.4938 19.8047L13.0211 26.3828L12.8317 27.2266C12.5868 27.0054 12.4448 26.6669 12.5329 26.2734L13.8034 20.6055L13.9391 19.998L13.317 19.9961L11.7467 19.9902C11.5471 19.9893 11.3504 19.9401 11.1735 19.8477C10.9966 19.7552 10.8439 19.6214 10.7292 19.458C10.6145 19.2946 10.5412 19.106 10.5143 18.9082C10.4874 18.7103 10.5079 18.5085 10.5749 18.3203L13.8961 8.99805C13.9482 8.85226 14.044 8.72587 14.1706 8.63672C14.2971 8.54766 14.4485 8.49992 14.6032 8.5Z" fill="#DC5126" stroke="#DC5126"/>
<circle cx="18" cy="18" r="17.5" stroke="#DC5126"/>
</svg>
